<svg id="Calque_1" data-name="Calque 1" xmlns="http://www.w3.org/2000/svg" viewBox="0 0 618.43 155.81"><defs><style>.cls-1{fill:#fff;}</style></defs><title>crealpha_black</title><g id="_8gL5hW.tif" data-name="8gL5hW.tif"><path d="M365.16,165.16q.09-51.72.18-103.43c0-2.16,0-4.31,0-6.86h25.3l.61,6.71c18.76-12.91,36-12,49.34,2.37,13.17,14.18,13.89,37.45,1.65,52.84s-29.93,17.12-51.08,4.94v43.44ZM424.28,91.4a17.39,17.39,0,0,0-17.12-17.29c-8.94,0-16.84,7.83-17.05,16.92s7.86,17.24,17.17,17.25A17.41,17.41,0,0,0,424.28,91.4Z" transform="translate(-15.16 -9.34)"/><path d="M15.16,86.16c.42-1.22.94-2.42,1.24-3.66,6.48-26.91,34.41-34.91,53.73-27.72,1.39.52,3.15,2.36,3.22,3.68.35,5.94.15,11.92.15,18.64C62.37,72,52.23,70.8,44.74,81.79a17.61,17.61,0,0,0,1.54,21.37c7.86,8.55,17,7.43,27.19,2.06,0,6.79.24,12.87-.19,18.9-.09,1.31-2.38,3-4,3.57C45,136,20,122,16.1,98.84a5.89,5.89,0,0,0-.94-1.69Z" transform="translate(-15.16 -9.34)"/><path d="M487,127.72H461.7V9.48h25V63a12.41,12.41,0,0,0,2.51-1.44c8.5-9.24,19.28-9.7,30.46-7.49,10.53,2.08,17.38,9.23,18,19.48,1,17.87.29,35.85.29,54.09H513.52c-.08-1.72-.23-3.47-.23-5.23,0-11.5.19-23-.15-34.49-.35-11.72-7.49-17.23-17.4-14-5.55,1.83-8.7,6.51-8.75,13.69C486.88,100.81,487,114,487,127.72Z" transform="translate(-15.16 -9.34)"/><path d="M289.14,61l.44-6.23h25.11v72.79H289.63l-.65-7.69c-7.91,9.17-17.54,11.29-28.07,9.92a34.11,34.11,0,0,1-21.56-11.5c-13.09-14.7-13.24-38.72-.37-53.74C251.49,50,269.54,48.55,289.14,61Zm-16,13.11a17.09,17.09,0,0,0-.39,34.18,17.09,17.09,0,1,0,.39-34.18Z" transform="translate(-15.16 -9.34)"/><path d="M608.08,60.77l.57-6.06h24.93v72.93h-25l-.54-7.85c-7.4,8.62-16.34,11.09-26.37,10.18A34.4,34.4,0,0,1,557,116.6c-11.84-15-11.3-37.81,1.16-52.19C570.41,50.21,587,48.95,608.08,60.77ZM575,90.89a17.1,17.1,0,0,0,16.87,17.39c9.31.1,17.38-7.78,17.37-17A17.51,17.51,0,0,0,592,74.11,17.19,17.19,0,0,0,575,90.89Z" transform="translate(-15.16 -9.34)"/><path d="M222.46,95.24H175.78c-8.12,0-9.2,1.72-5.83,9.33,3.88,8.79,17.07,11,24.9,4.38a13.49,13.49,0,0,1,7.32-2.93c6.28-.41,12.6-.14,19.71-.14-2.91,9.35-7.7,16.38-16,20.07-15.69,7-31.5,6.84-46.45-2-14.17-8.38-20.13-26-15.65-43.93,4-16,16.68-26.69,33.23-27.72a70.74,70.74,0,0,1,15.45.32C212.62,55.86,225.51,74,222.46,95.24ZM198.87,80.45c-2-8.26-8.22-12.88-16-12.36-7.56.51-12.49,5.05-13.07,12.36Z" transform="translate(-15.16 -9.34)"/><path d="M352.55,127.69H327.73V9.34h24.81Z" transform="translate(-15.16 -9.34)"/><path d="M109,127.71H83.72V54.79H109V65.08c2.64-2.33,4.78-4.65,7.34-6.36a35.15,35.15,0,0,1,8.8-4.49c11.17-3.51,13-2.09,13,9.15,0,4.43,0,8.87,0,13.36-3.89-.64-7.13-1.54-10.39-1.65-11.35-.39-18.45,6.55-18.73,18.59C108.78,104.82,109,116,109,127.71Z" transform="translate(-15.16 -9.34)"/><path d="M215.67,30.72V43.59H153.81V30.72Z" transform="translate(-15.16 -9.34)"/><path class="cls-1" d="M424.28,91.4a17.41,17.41,0,0,1-17,16.88c-9.32,0-17.38-8.12-17.17-17.25s8.11-16.92,17.05-16.92A17.39,17.39,0,0,1,424.28,91.4Z" transform="translate(-15.16 -9.34)"/><path class="cls-1" d="M273.15,74.11a17.09,17.09,0,1,1-.39,34.18,17.09,17.09,0,0,1,.39-34.18Z" transform="translate(-15.16 -9.34)"/><path class="cls-1" d="M575,90.89a17.19,17.19,0,0,1,17-16.78,17.51,17.51,0,0,1,17.24,17.18c0,9.21-8.06,17.1-17.37,17A17.1,17.1,0,0,1,575,90.89Z" transform="translate(-15.16 -9.34)"/><path class="cls-1" d="M198.87,80.45H169.75c.58-7.3,5.51-11.85,13.07-12.36C190.65,67.57,196.89,72.2,198.87,80.45Z" transform="translate(-15.16 -9.34)"/></g></svg>