<svg id="Calque_1" data-name="Calque 1" xmlns="http://www.w3.org/2000/svg" viewBox="0 0 618.43 155.81"><defs><style>.cls-1{fill:#fff;}</style></defs><title>crealpha_white</title><g id="_8gL5hW.tif" data-name="8gL5hW.tif"><path class="cls-1" d="M369.73,166.72q.09-51.72.18-103.43c0-2.16,0-4.31,0-6.86h25.3l.61,6.71c18.76-12.91,36-12,49.34,2.37,13.17,14.18,13.89,37.45,1.65,52.84s-29.93,17.12-51.08,4.94v43.44ZM428.85,93a17.39,17.39,0,0,0-17.12-17.29c-8.94,0-16.84,7.83-17.05,16.92s7.86,17.24,17.17,17.25A17.41,17.41,0,0,0,428.85,93Z" transform="translate(-19.73 -10.91)"/><path class="cls-1" d="M19.73,87.72c.42-1.22.94-2.42,1.24-3.66C27.45,57.15,55.38,49.15,74.7,56.34c1.39.52,3.15,2.36,3.22,3.68.35,5.94.15,11.92.15,18.64-11.12-5.1-21.27-6.29-28.76,4.69a17.61,17.61,0,0,0,1.54,21.37c7.86,8.55,17,7.43,27.19,2.06,0,6.79.24,12.87-.19,18.9-.09,1.31-2.38,3-4,3.57-24.31,8.31-49.27-5.69-53.19-28.85a5.89,5.89,0,0,0-.94-1.69Z" transform="translate(-19.73 -10.91)"/><path class="cls-1" d="M491.54,129.28H466.28V11h25V64.59a12.41,12.41,0,0,0,2.51-1.44c8.5-9.24,19.28-9.7,30.46-7.49,10.53,2.08,17.38,9.23,18,19.48,1,17.87.29,35.85.29,54.09H518.1c-.08-1.72-.23-3.47-.23-5.23,0-11.5.19-23-.15-34.49-.35-11.72-7.49-17.23-17.4-14-5.55,1.83-8.7,6.51-8.75,13.69C491.46,102.38,491.54,115.53,491.54,129.28Z" transform="translate(-19.73 -10.91)"/><path class="cls-1" d="M293.72,62.57l.44-6.23h25.11v72.79H294.21l-.65-7.69c-7.91,9.17-17.54,11.29-28.07,9.92a34.11,34.11,0,0,1-21.56-11.5c-13.09-14.7-13.24-38.72-.37-53.74C256.06,51.53,274.11,50.11,293.72,62.57Zm-16,13.11a17.09,17.09,0,0,0-.39,34.18,17.09,17.09,0,1,0,.39-34.18Z" transform="translate(-19.73 -10.91)"/><path class="cls-1" d="M612.65,62.34l.57-6.06h24.93v72.93h-25l-.54-7.85c-7.4,8.62-16.34,11.09-26.37,10.18a34.4,34.4,0,0,1-24.74-13.37c-11.84-15-11.3-37.81,1.16-52.19C575,51.78,591.55,50.51,612.65,62.34ZM579.59,92.46a17.1,17.1,0,0,0,16.87,17.39c9.31.1,17.38-7.78,17.37-17A17.51,17.51,0,0,0,596.6,75.67,17.19,17.19,0,0,0,579.59,92.46Z" transform="translate(-19.73 -10.91)"/><path class="cls-1" d="M227,96.8H180.36c-8.12,0-9.2,1.72-5.83,9.33,3.88,8.79,17.07,11,24.9,4.38a13.49,13.49,0,0,1,7.32-2.93c6.28-.41,12.6-.14,19.71-.14-2.91,9.35-7.7,16.38-16,20.07-15.69,7-31.5,6.84-46.45-2-14.17-8.38-20.13-26-15.65-43.93,4-16,16.68-26.69,33.23-27.72a70.74,70.74,0,0,1,15.45.32C217.2,57.42,230.08,75.56,227,96.8ZM203.45,82c-2-8.26-8.22-12.88-16-12.36-7.56.51-12.49,5.05-13.07,12.36Z" transform="translate(-19.73 -10.91)"/><path class="cls-1" d="M357.12,129.26H332.31V10.91h24.81Z" transform="translate(-19.73 -10.91)"/><path class="cls-1" d="M113.56,129.28H88.3V56.36h25.28V66.65c2.64-2.33,4.78-4.65,7.34-6.36a35.15,35.15,0,0,1,8.8-4.49c11.17-3.51,13-2.09,13,9.15,0,4.43,0,8.87,0,13.36-3.89-.64-7.13-1.54-10.39-1.65-11.35-.39-18.45,6.55-18.73,18.59C113.35,106.39,113.56,117.54,113.56,129.28Z" transform="translate(-19.73 -10.91)"/><path class="cls-1" d="M220.25,32.29V45.16H158.39V32.29Z" transform="translate(-19.73 -10.91)"/><path class="cls-1" d="M203.45,82H174.33" transform="translate(-19.73 -10.91)"/></g></svg>