<?xml version="1.0" standalone="no"?>
<!DOCTYPE svg PUBLIC "-//W3C//DTD SVG 20010904//EN"
 "http://www.w3.org/TR/2001/REC-SVG-20010904/DTD/svg10.dtd">
<svg version="1.0" xmlns="http://www.w3.org/2000/svg"
 width="260.000000pt" height="260.000000pt" viewBox="0 0 260.000000 260.000000"
 preserveAspectRatio="xMidYMid meet">
<metadata>
Created by potrace 1.11, written by Peter Selinger 2001-2013
</metadata>
<g transform="translate(0.000000,260.000000) scale(0.100000,-0.100000)"
fill="#000000" stroke="none">
<path d="M510 2352 l0 -177 790 0 c747 0 790 1 791 17 0 10 0 47 0 83 0 36 0
108 0 160 l-1 95 -790 0 -790 -1 0 -177z"/>
<path d="M1178 2004 c-2 -1 -26 -5 -53 -9 -155 -18 -357 -97 -464 -180 -62
-48 -172 -165 -206 -219 -35 -54 -89 -162 -90 -178 0 -3 -3 -10 -7 -14 -5 -4
-8 -17 -8 -29 0 -11 -4 -25 -9 -31 -8 -9 -27 -96 -39 -182 -12 -94 -6 -283 13
-383 18 -94 86 -260 122 -302 9 -9 12 -17 7 -17 -5 0 -4 -4 1 -8 6 -4 23 -25
40 -47 47 -63 135 -148 202 -193 34 -23 65 -42 69 -42 4 0 15 -6 23 -14 44
-37 254 -104 386 -122 68 -10 296 -10 375 -1 301 36 534 173 665 392 38 62 63
114 80 165 1 3 5 13 8 23 4 9 9 23 11 31 4 11 -49 13 -315 14 -175 0 -319 -4
-319 -8 0 -11 -60 -73 -101 -103 -115 -86 -365 -78 -482 15 -82 65 -119 157
-130 318 l-2 25 692 0 692 0 -4 95 c-12 283 -73 482 -198 650 -47 64 -153 167
-179 176 -10 3 -18 10 -18 15 0 5 -7 9 -15 9 -8 0 -15 4 -15 8 0 12 -142 76
-225 101 -108 33 -226 49 -371 48 -74 0 -135 -1 -136 -3z m282 -433 c60 -17
132 -64 175 -113 37 -44 74 -115 78 -150 l2 -22 -371 -1 -371 0 9 35 c24 90
86 175 159 218 77 46 219 61 319 33z"/>
</g>
</svg>
